<svg version="1.2" xmlns="http://www.w3.org/2000/svg" viewBox="0 0 18 17" width="18" height="17">
	<title>phone-svg</title>
	<style>
		.s0 { fill: #000 } 
	</style>
	<g id="SVGRepo_bgCarrier">
	</g>
	<g id="SVGRepo_tracerCarrier">
	</g>
	<g id="SVGRepo_iconCarrier">
		<path id="Layer" class="s0" d="m12.6 10.9l-0.5 0.5c0 0-1.1 1-4-1.9-3-2.9-1.9-4-1.9-4l0.3-0.3c0.7-0.7 0.8-1.8 0.1-2.7l-1.2-1.6c-0.8-1.1-2.3-1.2-3.1-0.3l-1.6 1.5c-0.4 0.5-0.7 1-0.7 1.6 0.1 1.6 0.8 5 4.8 9 4.3 4.2 8.2 4.4 9.9 4.3 0.5-0.1 0.9-0.3 1.3-0.7l1.4-1.4c1-1 0.7-2.6-0.5-3.3l-1.9-1c-0.8-0.4-1.8-0.3-2.4 0.3z"/>
	</g>
</svg>