<svg version="1.2" xmlns="http://www.w3.org/2000/svg" viewBox="0 0 17 16" width="17" height="16">
	<title>whatsapp-svg</title>
	<style>
		.s0 { fill: none } 
		.s1 { fill: #000000 } 
	</style>
	<g id="SVGRepo_bgCarrier">
	</g>
	<g id="SVGRepo_tracerCarrier">
	</g>
	<g id="SVGRepo_iconCarrier">
		<path id="Layer" class="s0" d="m-1-2h20v20h-20z"/>
		<g id="Layer">
			<path id="Layer" fill-rule="evenodd" class="s1" d="m13.3 14.8c-1.3 0.8-2.8 1.2-4.3 1.2-1.4 0-2.8-0.4-4.1-1.1l-0.3-0.2-3 0.8 0.8-3-0.2-0.3c-2.4-3.7-1.2-8.7 2.5-11 3.8-2.3 8.7-1.2 11.1 2.5 2.3 3.8 1.2 8.7-2.5 11.1zm0.5-4.4c-0.1-0.1-0.3-0.2-0.5-0.3l-1.6-0.8c-0.2-0.1-0.3-0.1-0.5 0.1-0.2 0.2-0.7 0.7-0.8 0.9-0.1 0.2-0.3 0.2-0.5 0.1-0.7-0.3-1.3-0.7-1.9-1.2-0.5-0.5-1-1.1-1.4-1.7-0.1-0.2 0-0.4 0.2-0.5 0.1-0.1 0.2-0.3 0.3-0.4 0.1-0.1 0.2-0.3 0.1-0.5 0.1-0.1 0.1-0.3 0-0.4 0-0.1-0.5-1.3-0.7-1.8-0.1-0.4-0.3-0.4-0.5-0.4h-0.5q-0.3 0-0.6 0.3c-0.5 0.5-0.8 1.2-0.8 2 0.1 0.9 0.4 1.8 1 2.5 1 1.5 2.4 2.8 4.1 3.6 2 0.8 2.5 0.6 2.9 0.6 0.7-0.1 1.2-0.5 1.6-1.1 0.2-0.3 0.2-0.7 0.1-1z"/>
		</g>
	</g>
</svg>